<svg width="232" height="48" viewBox="0 0 232 48" fill="none" xmlns="http://www.w3.org/2000/svg">
<path d="M14.1527 5.93259C10.9539 4.05985 6.77895 5.35606 5.11313 8.66738C1.72917 15.394 2.3441 24.9673 7.43115 33.5578C12.5333 42.1738 20.7631 47.4857 28.4497 47.9646C30.3258 48.0815 30.6929 45.6504 29.3222 44.3641C18.7332 34.4267 26.2473 13.0133 14.1527 5.93259Z" fill="#FF7733"/>
<path d="M33.8465 42.0693C37.0467 43.9398 41.221 42.6439 42.8869 39.3326C46.2708 32.606 45.6559 23.0327 40.5689 14.4422C35.4667 5.82616 27.2369 0.514301 19.5503 0.0354063C17.6742 -0.0814804 17.3073 2.34906 18.6786 3.6348C29.2809 13.576 21.7346 34.9897 33.8465 42.0693Z" fill="#FFBD5C"/>
<path d="M63.512 20.0447L57.2997 2.51704H62.1084L65.4095 12.9095L65.7214 16.4512L66.4232 16.4771L67.7229 19.6052C67.151 19.6913 66.4926 19.7689 65.7474 19.8378C65.0196 19.924 64.2745 19.9929 63.512 20.0447ZM59.5871 4.45593L56 3.88719L56.026 2.51704H59.665L59.5871 4.45593ZM67.6969 19.6052L65.2016 18.7004L70.5561 2.51704H73.6233L67.6969 19.6052ZM62.2383 4.71445L62.0044 2.51704H64.6557L64.8117 3.3443C64.4304 3.58559 64.0232 3.81825 63.59 4.0423C63.1741 4.26635 62.7236 4.4904 62.2383 4.71445ZM71.3099 4.45593L67.7229 3.88719L67.7489 2.51704H71.3879L71.3099 4.45593ZM72.4017 4.71445L72.1677 2.51704H74.819L74.975 3.3443C74.5937 3.58559 74.1865 3.81825 73.7533 4.0423C73.3374 4.26635 72.8869 4.4904 72.4017 4.71445Z" fill="#023A6B"/>
<path d="M75.1596 19.631L75.0036 18.8038C75.3848 18.528 75.7921 18.2781 76.2253 18.0541C76.6585 17.83 77.1091 17.6232 77.5769 17.4336L77.6029 19.631H75.1596ZM89.5078 19.631L85.5308 19.2174L87.2204 14.047L89.8197 14.2538C89.837 14.7364 89.8284 15.3051 89.7937 15.96C89.7764 16.5977 89.7417 17.244 89.6897 17.8989C89.6377 18.5366 89.5771 19.114 89.5078 19.631ZM78.4347 4.35253L75.2635 3.88719L75.2895 2.51704H78.4607L78.4347 4.35253ZM86.5965 7.73913L85.7388 2.98237L89.6637 2.51704C89.6984 2.87897 89.6984 3.36154 89.6637 3.96475C89.6291 4.56796 89.5771 5.20564 89.5078 5.87779C89.4385 6.53271 89.3345 7.15315 89.1959 7.73913H86.5965ZM77.213 19.631V2.51704H81.9178V19.631H77.213ZM87.3503 12.3925L81.112 12.134V10.1175L87.3503 9.60047V12.3925ZM89.2998 5.30905L80.93 4.74031L78.9806 2.51704H89.6637L89.2998 5.30905ZM79.1365 19.631L81.086 17.3043L89.3518 16.658L89.4818 19.631H79.1365Z" fill="#023A6B"/>
<path d="M93.9156 19.631V2.51704H98.6204V19.631H93.9156ZM91.8622 19.631L91.7062 18.8038C92.0875 18.528 92.4947 18.2781 92.9279 18.0541C93.3611 17.83 93.8117 17.6232 94.2795 17.4336L94.3055 19.631H91.8622ZM95.9951 19.631L97.9446 17.3043L106.288 16.5029L106.73 19.631H95.9951ZM106.73 19.631L102.519 19.2174L104.417 13.0388L107.12 13.2714C107.137 13.8747 107.129 14.564 107.094 15.3396C107.077 16.0979 107.042 16.8562 106.99 17.6146C106.938 18.3729 106.852 19.045 106.73 19.631ZM95.5012 4.45593L91.9142 3.88719L91.9402 2.51704H95.5792L95.5012 4.45593ZM98.2565 4.71445L98.2305 2.51704H100.674L100.83 3.3443C100.466 3.58559 100.067 3.81825 99.6341 4.0423C99.2009 4.26635 98.7417 4.4904 98.2565 4.71445Z" fill="#023A6B"/>
<path d="M116.475 20.1481C115.332 20.1481 114.231 19.9585 113.174 19.5793C112.134 19.2002 111.199 18.64 110.367 17.8989C109.552 17.1406 108.903 16.2099 108.417 15.1069C107.949 13.9867 107.716 12.6855 107.716 11.2033C107.716 9.32472 108.097 7.69604 108.859 6.31727C109.622 4.9385 110.653 3.87857 111.952 3.13749C113.252 2.37916 114.699 2 116.293 2C117.454 2 118.555 2.20682 119.594 2.62045C120.651 3.01684 121.579 3.62005 122.376 4.43008C123.19 5.22288 123.831 6.19663 124.299 7.35135C124.767 8.50607 125.001 9.82452 125.001 11.3067C125.001 12.7889 124.767 14.0901 124.299 15.2103C123.831 16.3134 123.199 17.2268 122.402 17.9506C121.605 18.6745 120.695 19.226 119.672 19.6052C118.65 19.9671 117.584 20.1481 116.475 20.1481ZM116.943 17.6404C117.186 17.6404 117.402 17.6232 117.593 17.5887C117.784 17.537 117.974 17.4853 118.165 17.4336C118.737 16.9166 119.196 16.1238 119.542 15.0552C119.889 13.9694 120.062 12.7458 120.062 11.3843C120.062 10.5053 119.976 9.66079 119.802 8.85076C119.646 8.0235 119.395 7.29103 119.049 6.65335C118.719 5.99843 118.295 5.48139 117.775 5.10223C117.272 4.70584 116.666 4.50764 115.955 4.50764C115.695 4.50764 115.418 4.54211 115.124 4.61105C114.846 4.66275 114.586 4.74031 114.344 4.84371C114.032 5.1367 113.746 5.55895 113.486 6.11046C113.226 6.66197 113.018 7.3255 112.862 8.10106C112.724 8.87662 112.654 9.73835 112.654 10.6863C112.654 11.7031 112.741 12.6424 112.914 13.5041C113.105 14.3486 113.382 15.0811 113.746 15.7015C114.11 16.322 114.552 16.8045 115.072 17.1492C115.609 17.4767 116.233 17.6404 116.943 17.6404Z" fill="#023A6B"/>
<path d="M136.219 20.0447C134.763 20.1136 133.498 19.9843 132.424 19.6569C131.349 19.3294 130.439 18.8727 129.694 18.2867C128.949 17.7007 128.351 17.0286 127.901 16.2703C127.45 15.4947 127.121 14.6847 126.913 13.8402C126.705 12.9785 126.601 12.134 126.601 11.3067C126.601 10.1347 126.783 8.99726 127.147 7.89424C127.528 6.79123 128.091 5.80024 128.837 4.92127C129.582 4.02507 130.517 3.31845 131.644 2.80141C132.788 2.26714 134.139 2 135.699 2C137.033 2 138.142 2.18096 139.026 2.54289C139.91 2.90482 140.629 3.28398 141.183 3.68038L140.378 7.24794C139.424 6.45515 138.411 5.81747 137.336 5.3349C136.262 4.8351 135.014 4.55073 133.593 4.48179C133.073 4.94712 132.64 5.52448 132.294 6.21387C131.964 6.88602 131.722 7.60125 131.566 8.35958C131.41 9.1179 131.332 9.87622 131.332 10.6345C131.332 11.841 131.523 12.9354 131.904 13.9177C132.285 14.8829 132.866 15.6498 133.645 16.2186C134.425 16.7873 135.387 17.0631 136.531 17.0458L140.949 15.6498L141.677 17.7697L136.219 20.0447ZM137.778 8.64395L136.712 3.91304L141.183 3.68038C141.218 4.0423 141.209 4.52487 141.157 5.12808C141.123 5.71406 141.053 6.32589 140.949 6.96357C140.845 7.60125 140.724 8.16138 140.585 8.64395H137.778Z" fill="#023A6B"/>
<path d="M142.655 19.631L142.499 18.8038C142.881 18.528 143.288 18.2781 143.721 18.0541C144.154 17.83 144.605 17.6232 145.073 17.4336L145.099 19.631H142.655ZM157.004 19.631L153.027 19.2174L154.716 14.047L157.315 14.2538C157.333 14.7364 157.324 15.3051 157.289 15.96C157.272 16.5977 157.238 17.244 157.186 17.8989C157.134 18.5366 157.073 19.114 157.004 19.631ZM145.93 4.35253L142.759 3.88719L142.785 2.51704H145.956L145.93 4.35253ZM154.092 7.73913L153.235 2.98237L157.16 2.51704C157.194 2.87897 157.194 3.36154 157.16 3.96475C157.125 4.56796 157.073 5.20564 157.004 5.87779C156.934 6.53271 156.83 7.15315 156.692 7.73913H154.092ZM144.709 19.631V2.51704H149.414V19.631H144.709ZM154.846 12.3925L148.608 12.134V10.1175L154.846 9.60047V12.3925ZM156.796 5.30905L148.426 4.74031L146.476 2.51704H157.16L156.796 5.30905ZM146.632 19.631L148.582 17.3043L156.848 16.658L156.978 19.631H146.632Z" fill="#023A6B"/>
<path d="M65.9814 45.8966C64.5257 45.9655 63.2607 45.8363 62.1864 45.5088C61.112 45.1814 60.2022 44.7246 59.4571 44.1387C58.7119 43.5527 58.1141 42.8805 57.6636 42.1222C57.213 41.3467 56.8838 40.5366 56.6758 39.6921C56.4679 38.8304 56.3639 37.9859 56.3639 37.1586C56.3639 35.9867 56.5459 34.8492 56.9098 33.7462C57.291 32.6432 57.8542 31.6522 58.5993 30.7732C59.3444 29.877 60.2802 29.1704 61.4066 28.6533C62.5503 28.1191 63.9019 27.8519 65.4615 27.8519C66.7958 27.8519 67.9048 28.0329 68.7886 28.3948C69.6724 28.7568 70.3915 29.1359 70.946 29.5323L70.1403 33.0999C69.1872 32.3071 68.1734 31.6694 67.0991 31.1868C66.0247 30.687 64.777 30.4027 63.3561 30.3337C62.8362 30.7991 62.403 31.3764 62.0564 32.0658C61.7272 32.738 61.4845 33.4532 61.3286 34.2115C61.1726 34.9698 61.0947 35.7282 61.0947 36.4865C61.0947 37.6929 61.2853 38.7873 61.6665 39.7697C62.0477 40.7348 62.6282 41.5018 63.408 42.0705C64.1878 42.6392 65.1496 42.915 66.2933 42.8978L70.7121 41.5018L71.4399 43.6216L65.9814 45.8966ZM67.5409 34.4959L66.4752 29.765L70.946 29.5323C70.9807 29.8942 70.972 30.3768 70.9201 30.98C70.8854 31.566 70.8161 32.1778 70.7121 32.8155C70.6081 33.4532 70.4868 34.0133 70.3482 34.4959H67.5409Z" fill="#023A6B"/>
<path d="M80.1762 46C79.0325 46 77.9322 45.8104 76.8751 45.4313C75.8354 45.0521 74.8996 44.492 74.0679 43.7509C73.2534 42.9926 72.6036 42.0619 72.1184 40.9589C71.6505 39.8386 71.4166 38.5374 71.4166 37.0552C71.4166 35.1767 71.7978 33.548 72.5603 32.1692C73.3227 30.7904 74.3538 29.7305 75.6534 28.9894C76.9531 28.2311 78.4 27.8519 79.9943 27.8519C81.1553 27.8519 82.2557 28.0588 83.2954 28.4724C84.3525 28.8688 85.2796 29.472 86.0767 30.282C86.8911 31.0748 87.5323 32.0486 88.0002 33.2033C88.468 34.358 88.702 35.6765 88.702 37.1586C88.702 38.6408 88.468 39.942 88.0002 41.0623C87.5323 42.1653 86.8998 43.0787 86.1027 43.8026C85.3055 44.5264 84.3958 45.0779 83.3734 45.4571C82.351 45.819 81.2853 46 80.1762 46ZM80.6441 43.4924C80.8867 43.4924 81.1033 43.4751 81.2939 43.4407C81.4846 43.389 81.6752 43.3372 81.8658 43.2855C82.4376 42.7685 82.8969 41.9757 83.2434 40.9072C83.59 39.8214 83.7633 38.5977 83.7633 37.2362C83.7633 36.3572 83.6766 35.5127 83.5034 34.7027C83.3474 33.8754 83.0961 33.143 82.7496 32.5053C82.4203 31.8504 81.9958 31.3333 81.4759 30.9542C80.9734 30.5578 80.3669 30.3596 79.6564 30.3596C79.3964 30.3596 79.1192 30.394 78.8246 30.463C78.5473 30.5147 78.2874 30.5922 78.0448 30.6957C77.7329 30.9886 77.447 31.4109 77.187 31.9624C76.9271 32.5139 76.7192 33.1774 76.5632 33.953C76.4246 34.7286 76.3552 35.5903 76.3552 36.5382C76.3552 37.555 76.4419 38.4943 76.6152 39.3561C76.8058 40.2006 77.0831 40.933 77.447 41.5535C77.8109 42.1739 78.2527 42.6565 78.7726 43.0012C79.3098 43.3286 79.9336 43.4924 80.6441 43.4924Z" fill="#023A6B"/>
<path d="M89.7553 45.483L89.5994 44.6557C89.9806 44.3799 90.3878 44.13 90.821 43.906C91.2542 43.6819 91.7048 43.4751 92.1727 43.2855L92.1987 45.483H89.7553ZM95.8637 45.483L95.9417 43.5441L99.5287 44.1128L99.5027 45.483H95.8637ZM92.8745 30.2045L89.7033 29.7391L89.7293 28.369H92.9005L92.8745 30.2045ZM101.036 33.7462L100.179 28.8343L104.104 28.369C104.138 28.7309 104.138 29.2307 104.104 29.8684C104.069 30.4888 104.017 31.1438 103.948 31.8331C103.878 32.5225 103.774 33.1602 103.636 33.7462H101.036ZM91.6528 45.483V28.369H96.3576V45.483H91.6528ZM103.324 31.1351L95.6817 30.5922L93.7323 28.369H104.104L103.324 31.1351ZM102.102 38.9166L95.8637 38.6322V36.4348L102.102 35.9694V38.9166Z" fill="#023A6B"/>
<path d="M105.392 45.483L105.236 44.6557C105.617 44.3799 106.024 44.13 106.458 43.906C106.891 43.6819 107.341 43.4751 107.809 43.2855L107.835 45.483H105.392ZM111.5 45.483L111.578 43.5441L115.165 44.1128L115.139 45.483H111.5ZM108.511 30.2045L105.34 29.7391L105.366 28.369H108.537L108.511 30.2045ZM116.673 33.7462L115.815 28.8343L119.74 28.369C119.775 28.7309 119.775 29.2307 119.74 29.8684C119.705 30.4888 119.653 31.1438 119.584 31.8331C119.515 32.5225 119.411 33.1602 119.272 33.7462H116.673ZM107.289 45.483V28.369H111.994V45.483H107.289ZM118.96 31.1351L111.318 30.5922L109.369 28.369H119.74L118.96 31.1351ZM117.739 38.9166L111.5 38.6322V36.4348L117.739 35.9694V38.9166Z" fill="#023A6B"/>
<path d="M121.028 45.483L120.872 44.6557C121.254 44.3799 121.661 44.13 122.094 43.906C122.527 43.6819 122.978 43.4751 123.446 43.2855L123.472 45.483H121.028ZM135.376 45.483L131.4 45.0693L133.089 39.8989L135.688 40.1058C135.706 40.5883 135.697 41.1571 135.662 41.812C135.645 42.4497 135.61 43.096 135.558 43.7509C135.506 44.3886 135.446 44.9659 135.376 45.483ZM124.303 30.2045L121.132 29.7391L121.158 28.369H124.329L124.303 30.2045ZM132.465 33.5911L131.607 28.8343L135.532 28.369C135.567 28.7309 135.567 29.2135 135.532 29.8167C135.498 30.4199 135.446 31.0576 135.376 31.7297C135.307 32.3846 135.203 33.0051 135.065 33.5911H132.465ZM123.082 45.483V28.369H127.786V45.483H123.082ZM133.219 38.2444L126.981 37.9859V35.9694L133.219 35.4524V38.2444ZM135.169 31.161L126.799 30.5922L124.849 28.369H135.532L135.169 31.161ZM125.005 45.483L126.955 43.1563L135.221 42.51L135.35 45.483H125.005Z" fill="#023A6B"/>
<path d="M137.731 45.483L137.575 44.6557C137.956 44.3799 138.363 44.13 138.797 43.906C139.23 43.6819 139.68 43.4751 140.148 43.2855L140.174 45.483H137.731ZM152.079 45.483L148.102 45.0693L149.792 39.8989L152.391 40.1058C152.408 40.5883 152.4 41.1571 152.365 41.812C152.348 42.4497 152.313 43.096 152.261 43.7509C152.209 44.3886 152.148 44.9659 152.079 45.483ZM141.006 30.2045L137.835 29.7391L137.861 28.369H141.032L141.006 30.2045ZM149.168 33.5911L148.31 28.8343L152.235 28.369C152.27 28.7309 152.27 29.2135 152.235 29.8167C152.2 30.4199 152.148 31.0576 152.079 31.7297C152.01 32.3846 151.906 33.0051 151.767 33.5911H149.168ZM139.784 45.483V28.369H144.489V45.483H139.784ZM149.922 38.2444L143.683 37.9859V35.9694L149.922 35.4524V38.2444ZM151.871 31.161L143.501 30.5922L141.552 28.369H152.235L151.871 31.161ZM141.708 45.483L143.657 43.1563L151.923 42.51L152.053 45.483H141.708Z" fill="#023A6B"/>
<path d="M168.409 45.9741C167.75 45.9741 167.022 45.9138 166.225 45.7932C165.445 45.6725 164.674 45.5002 163.912 45.2761C163.149 45.0349 162.474 44.7419 161.884 44.3972L163.028 41.0623C163.583 41.6827 164.198 42.1911 164.874 42.5875C165.567 42.9667 166.277 43.2425 167.005 43.4148C167.75 43.5872 168.469 43.6906 169.162 43.725C169.665 43.501 170.02 43.208 170.228 42.8461C170.453 42.4841 170.566 42.1308 170.566 41.7861C170.566 41.2863 170.393 40.8555 170.046 40.4935C169.7 40.1316 169.24 39.8042 168.669 39.5112C168.114 39.2182 167.473 38.908 166.745 38.5805C165.983 38.2186 165.229 37.8136 164.484 37.3655C163.739 36.9001 163.115 36.3314 162.612 35.6592C162.11 34.9871 161.858 34.1512 161.858 33.1516C161.858 32.1003 162.153 31.1782 162.742 30.3854C163.349 29.5754 164.18 28.955 165.237 28.5241C166.295 28.076 167.499 27.8519 168.851 27.8519C169.492 27.8519 170.15 27.9036 170.826 28.007C171.519 28.0932 172.169 28.2139 172.775 28.369C173.399 28.5069 173.945 28.662 174.413 28.8343L172.983 32.376C172.204 31.5488 171.337 30.9628 170.384 30.6181C169.448 30.2562 168.469 30.0666 167.447 30.0494C167.031 30.2734 166.728 30.575 166.537 30.9542C166.364 31.3161 166.277 31.6608 166.277 31.9882C166.277 32.4536 166.468 32.8586 166.849 33.2033C167.23 33.5307 167.724 33.841 168.331 34.134C168.955 34.4269 169.639 34.7458 170.384 35.0905C171.164 35.4524 171.918 35.866 172.646 36.3314C173.391 36.7967 173.997 37.3741 174.465 38.0635C174.95 38.7528 175.193 39.6232 175.193 40.6745C175.193 41.812 174.881 42.7771 174.257 43.5699C173.633 44.3627 172.81 44.9659 171.788 45.3796C170.765 45.776 169.639 45.9741 168.409 45.9741ZM166.823 44.6298L161.884 44.3972C161.867 44.0353 161.867 43.5527 161.884 42.9495C161.919 42.329 161.971 41.7 162.04 41.0623C162.127 40.4074 162.231 39.8559 162.352 39.4078H164.458L166.823 44.6298ZM171.476 33.772L169.968 29.0928L174.413 28.8343C174.413 29.3169 174.387 29.8425 174.335 30.4113C174.3 30.98 174.248 31.5574 174.179 32.1434C174.11 32.7121 174.006 33.255 173.867 33.772H171.476Z" fill="#023A6B"/>
<path d="M178.952 45.483V28.369H183.656V45.483H178.952ZM182.383 38.1669V35.7368H191.584V38.1669H182.383ZM189.973 45.483V28.369H194.678V45.483H189.973ZM180.537 30.3079L176.95 29.7391L176.976 28.369H180.615L180.537 30.3079ZM183.293 30.5664L183.267 28.369H185.71L185.866 29.1962C185.502 29.4375 185.103 29.6702 184.67 29.8942C184.237 30.1183 183.778 30.3423 183.293 30.5664ZM191.558 30.3079L187.971 29.7391L187.997 28.369H191.636L191.558 30.3079ZM194.314 30.5664L194.288 28.369H196.731L196.887 29.1962C196.523 29.4375 196.124 29.6702 195.691 29.8942C195.258 30.1183 194.799 30.3423 194.314 30.5664ZM176.898 45.483L176.742 44.6557C177.124 44.3799 177.531 44.13 177.964 43.906C178.397 43.6819 178.848 43.4751 179.316 43.2855L179.342 45.483H176.898ZM182.357 45.483L182.435 43.5441L186.022 44.1128L185.996 45.483H182.357ZM187.919 45.483L187.763 44.6557C188.145 44.3799 188.552 44.13 188.985 43.906C189.418 43.6819 189.869 43.4751 190.337 43.2855L190.363 45.483H187.919ZM193.378 45.483L193.456 43.5441L197.043 44.1128L197.017 45.483H193.378Z" fill="#023A6B"/>
<path d="M206.461 46C205.317 46 204.217 45.8104 203.16 45.4313C202.12 45.0521 201.185 44.492 200.353 43.7509C199.538 42.9926 198.888 42.0619 198.403 40.9589C197.935 39.8386 197.701 38.5374 197.701 37.0552C197.701 35.1767 198.083 33.548 198.845 32.1692C199.608 30.7904 200.639 29.7305 201.938 28.9894C203.238 28.2311 204.685 27.8519 206.279 27.8519C207.44 27.8519 208.541 28.0588 209.58 28.4724C210.637 28.8688 211.564 29.472 212.362 30.282C213.176 31.0748 213.817 32.0486 214.285 33.2033C214.753 34.358 214.987 35.6765 214.987 37.1586C214.987 38.6408 214.753 39.942 214.285 41.0623C213.817 42.1653 213.185 43.0787 212.388 43.8026C211.59 44.5264 210.681 45.0779 209.658 45.4571C208.636 45.819 207.57 46 206.461 46ZM206.929 43.4924C207.172 43.4924 207.388 43.4751 207.579 43.4407C207.769 43.389 207.96 43.3372 208.151 43.2855C208.723 42.7685 209.182 41.9757 209.528 40.9072C209.875 39.8214 210.048 38.5977 210.048 37.2362C210.048 36.3572 209.962 35.5127 209.788 34.7027C209.632 33.8754 209.381 33.143 209.034 32.5053C208.705 31.8504 208.281 31.3333 207.761 30.9542C207.258 30.5578 206.652 30.3596 205.941 30.3596C205.681 30.3596 205.404 30.394 205.11 30.463C204.832 30.5147 204.572 30.5922 204.33 30.6957C204.018 30.9886 203.732 31.4109 203.472 31.9624C203.212 32.5139 203.004 33.1774 202.848 33.953C202.709 34.7286 202.64 35.5903 202.64 36.5382C202.64 37.555 202.727 38.4943 202.9 39.3561C203.091 40.2006 203.368 40.933 203.732 41.5535C204.096 42.1739 204.538 42.6565 205.058 43.0012C205.595 43.3286 206.219 43.4924 206.929 43.4924Z" fill="#023A6B"/>
<path d="M221.889 39.4595L221.967 36.6674C222.261 36.7709 222.556 36.8484 222.85 36.9001C223.145 36.9518 223.422 36.9949 223.682 37.0294C223.942 37.0466 224.167 37.0552 224.358 37.0552C225.034 37.0552 225.58 36.9087 225.996 36.6157C226.411 36.3055 226.715 35.9091 226.905 35.4266C227.113 34.9268 227.217 34.4011 227.217 33.8496C227.217 33.4187 227.165 32.9792 227.061 32.5311C226.957 32.0658 226.801 31.6436 226.593 31.2644C226.403 30.8852 226.152 30.6009 225.84 30.4113L222.357 30.8249L216.014 28.369L224.982 28.1622C226.524 28.1449 227.815 28.4121 228.855 28.9636C229.895 29.5151 230.674 30.2303 231.194 31.1093C231.731 31.9883 232 32.9275 232 33.9271C232 34.944 231.714 35.8747 231.142 36.7192C230.57 37.5464 229.782 38.2013 228.777 38.6839C227.772 39.1665 226.585 39.4164 225.216 39.4336L221.889 39.4595ZM216.04 45.483L215.884 44.6557C216.266 44.3799 216.673 44.13 217.106 43.906C217.539 43.6819 217.99 43.4751 218.458 43.2855L218.484 45.483H216.04ZM222.149 45.483L222.227 43.5441L225.814 44.1128L225.788 45.483H222.149ZM217.938 45.483V28.369H222.642V45.483H217.938ZM219.159 30.2045L215.988 29.7391L216.014 28.369H219.185L219.159 30.2045Z" fill="#023A6B"/>
</svg>
