<svg width="102" height="103" viewBox="0 0 102 103" fill="none" xmlns="http://www.w3.org/2000/svg">
<path d="M45.6967 11L49.8727 0.695999L51.4087 1.016L47.6647 11H45.6967ZM53.2647 11L49.3927 0.664L51.8887 0.0239992L56.3207 11H53.2647ZM48.1287 8.248V6.904L53.2807 6.904V8.248L48.1287 8.248ZM44.9607 11L44.8647 10.488C45.0993 10.3173 45.35 10.1627 45.6167 10.024C45.8833 9.88533 46.1607 9.75733 46.4487 9.64L46.4647 11H44.9607ZM47.2007 11L47.2487 9.8L49.4567 10.152L49.4407 11H47.2007ZM51.6167 11L51.5207 10.488C51.7553 10.3173 52.006 10.1627 52.2727 10.024C52.5393 9.88533 52.8167 9.75733 53.1047 9.64L53.4567 11L51.6167 11ZM54.8007 11L54.8487 9.8L57.0567 10.152L57.0407 11H54.8007Z" fill="#FFBD5C"/>
<path d="M59.6049 11.8311L61.5268 4.95876L63.584 4.67211L63.9935 6.4157L62.2699 12.5792L59.6049 11.8311ZM61.7587 8.34756L62.5582 7.50843L65.6069 5.33972C65.9643 5.32925 66.3075 5.40898 66.6365 5.5789C66.9685 5.73856 67.2363 5.96887 67.4402 6.26982C67.6571 6.56338 67.763 6.89777 67.7577 7.27299L65.6152 8.81531C65.4319 8.52012 65.223 8.21772 64.9883 7.90812C64.7537 7.59852 64.4793 7.37191 64.165 7.22829L61.7587 8.34756ZM60.2292 5.14292L60.359 4.38167C60.8597 4.33389 61.3849 4.33729 61.9345 4.39187C62.487 4.43617 63.0368 4.52959 63.584 4.67211L63.2669 5.74641L61.9368 5.98787L60.2292 5.14292ZM58.4804 11.5154L58.6004 10.9675C58.9471 10.8764 59.3071 10.8169 59.6804 10.7887C60.0641 10.7635 60.4097 10.7553 60.7174 10.7641L60.2057 11.9998L58.4804 11.5154ZM61.5459 12.376L62.349 10.9894C62.5532 11.0911 62.7618 11.2161 62.9751 11.3646C63.1912 11.5028 63.3992 11.6499 63.5993 11.8058C63.8125 11.9542 63.9995 12.1175 64.1601 12.2956L63.9182 13.0419L61.5459 12.376Z" fill="#FFBD5C"/>
<path d="M74.1012 18.3747C73.919 18.2637 73.7627 18.0998 73.6323 17.883C73.5055 17.6808 73.4126 17.4431 73.3538 17.17C73.3097 16.8932 73.3049 16.603 73.3395 16.2994L73.1897 16.1144L75.207 12.7907C75.4671 12.3621 75.5943 12.0087 75.5885 11.7304C75.5828 11.4521 75.5256 11.2174 75.4169 11.0263C75.2748 10.9522 75.1197 10.8889 74.9519 10.8366C74.7986 10.7807 74.6654 10.7433 74.5522 10.7242L73.311 12.029L71.9417 11.2322C72.0297 10.8611 72.1616 10.4793 72.3375 10.0868C72.5133 9.69432 72.7218 9.34048 72.963 9.0253C73.3118 9.08793 73.6824 9.17632 74.0748 9.29049C74.4727 9.39553 74.855 9.51604 75.2217 9.65201C75.603 9.78442 75.9459 9.9184 76.2504 10.054C76.564 10.1951 76.8119 10.3212 76.9941 10.4322C77.2492 10.5876 77.473 10.7739 77.6655 10.9911C77.8581 11.2084 78.0075 11.4556 78.1138 11.7327C78.2348 12.0062 78.3063 12.2996 78.3283 12.6128C78.3348 12.7666 78.2835 12.9539 78.1744 13.1748C78.0653 13.3956 77.889 13.7066 77.6455 14.1078L75.9437 16.9118C75.8883 17.003 75.8686 17.0971 75.8845 17.1943C75.9095 17.2969 75.9722 17.3788 76.0724 17.4399C76.1817 17.5065 76.2937 17.5685 76.4086 17.626C76.5234 17.6835 76.6565 17.752 76.8078 17.8317L76.5245 18.4835L74.1012 18.3747ZM71.2924 16.5884C70.7051 16.3431 70.27 16.0217 69.9871 15.6245C69.7041 15.2273 69.5555 14.8245 69.5413 14.4161C69.5327 13.9987 69.6224 13.6349 69.8106 13.3249C69.9822 13.0422 70.2431 12.8077 70.5932 12.6214C70.9489 12.4259 71.3835 12.3472 71.897 12.3852L74.9581 14.1567L74.4215 15.0101L74.0472 14.7633C73.8832 14.6634 73.7092 14.5698 73.525 14.4826C73.35 14.401 73.1803 14.3413 73.016 14.3036C72.8517 14.266 72.7009 14.2678 72.5636 14.309C72.4262 14.3502 72.3133 14.4438 72.2247 14.5897C72.1639 14.69 72.1184 14.806 72.0885 14.9376C72.0676 15.0748 72.076 15.2048 72.1137 15.3277C72.2923 15.424 72.482 15.5021 72.6827 15.562C72.8926 15.6274 73.0961 15.6827 73.2933 15.7279C73.4905 15.7731 73.6593 15.8135 73.7999 15.8492L73.6288 16.5319L71.2924 16.5884Z" fill="#FFBD5C"/>
<path d="M80.4992 23.9711C80.1574 23.6044 79.8254 23.17 79.5033 22.668C79.1812 22.166 78.9011 21.6465 78.6631 21.1096L81.0773 20.9541C81.0441 21.2627 81.0525 21.5689 81.1025 21.8728C81.1675 22.1772 81.2818 22.4719 81.4455 22.757C81.6242 23.0426 81.8603 23.3037 82.1538 23.5404C82.5667 23.5922 82.9952 23.52 83.4392 23.3237C83.8905 23.1351 84.2914 22.8769 84.6418 22.5489C84.93 22.2792 85.1551 21.981 85.317 21.6541C85.4941 21.3278 85.5766 21.0096 85.5645 20.6994C85.5603 20.382 85.4418 20.0985 85.2091 19.8488C85.0345 19.6615 84.7984 19.5099 84.5008 19.394C84.2182 19.2786 83.9014 19.1734 83.5503 19.0783L83.8727 18.5794L87.2095 19.2259C87.6651 19.5739 87.976 19.9622 88.1423 20.3909C88.3237 20.8201 88.3877 21.2642 88.3343 21.7232C88.2882 22.19 88.1445 22.6459 87.9031 23.0909C87.6617 23.5359 87.3424 23.9442 86.9452 24.3159C86.5246 24.7095 86.0541 25.0182 85.5338 25.2422C85.0134 25.4662 84.4629 25.5795 83.8823 25.5824C83.3089 25.593 82.7326 25.4676 82.1535 25.206C81.5816 24.9523 81.0302 24.5407 80.4992 23.9711ZM78.6631 21.1096L86.4205 13.8507L88.338 14.664L88.3429 15.8426L80.8075 22.8938L78.6631 21.1096ZM85.216 13.3563L85.7456 12.7512C86.1902 12.9779 86.633 13.2574 87.0741 13.5897C87.5151 13.9221 87.9364 14.2802 88.338 14.664L87.5085 15.4402L86.2471 14.9552L85.216 13.3563Z" fill="#FFBD5C"/>
<path d="M86.7472 31.9428L93.0805 28.6548L94.6936 29.9626L94.4089 31.0839L88.0187 34.4014L86.7472 31.9428ZM86.2033 30.8911L86.6856 30.6046C86.9837 30.7864 87.2704 31.0041 87.5457 31.2578C87.8259 31.5209 88.0678 31.768 88.2712 31.9988L87.0265 32.4828L86.2033 30.8911ZM87.3719 33.1508L89.0183 32.7468C89.0945 33.0798 89.1594 33.4607 89.213 33.8896C89.2762 34.3135 89.2864 34.7048 89.2437 35.0635L88.5332 35.3963L87.3719 33.1508ZM92.0607 27.8322L92.7056 27.4072C93.0821 27.7406 93.4379 28.1267 93.773 28.5657C94.1176 28.9997 94.4244 29.4654 94.6936 29.9626L93.6922 30.4645L92.6082 29.6571L92.0607 27.8322ZM95.2698 29.2308C95.2452 28.835 95.2706 28.4312 95.3459 28.0195C95.4307 27.6029 95.5445 27.2193 95.6874 26.8687C96.1308 26.8669 96.5557 26.9107 96.9622 27.0001C97.3782 27.0846 97.7638 27.2149 98.1191 27.391C98.1248 27.7967 98.0661 28.2058 97.9431 28.6181C97.8296 29.0256 97.6823 29.4026 97.5012 29.749C97.1199 29.7546 96.7331 29.7151 96.341 29.6302C95.9583 29.5404 95.6013 29.4073 95.2698 29.2308Z" fill="#FFBD5C"/>
<path d="M91.1928 45.1222C90.9732 44.536 90.8791 43.9509 90.9105 43.3669C90.9419 42.7829 91.0844 42.2357 91.338 41.7253C91.6043 41.2231 91.9724 40.7924 92.4426 40.433C92.9232 40.0714 93.5029 39.82 94.1816 39.6787C94.9962 39.5091 95.742 39.5336 96.4192 39.7521C97.109 39.979 97.6879 40.3542 98.156 40.8778C98.6262 41.4118 98.9382 42.0496 99.092 42.7911C99.1874 43.2507 99.2063 43.7098 99.1489 44.1684C99.0916 44.6271 98.9439 45.0446 98.7061 45.421C98.4682 45.7974 98.1336 46.1013 97.7023 46.3327L96.051 44.4375C96.4337 44.1291 96.7494 43.8127 96.9981 43.4886C97.2594 43.1727 97.441 42.8407 97.5431 42.4926C97.1588 42.2675 96.7469 42.1463 96.3075 42.1288C95.8786 42.1091 95.4866 42.1363 95.1315 42.2102C94.6303 42.3146 94.1923 42.4875 93.8175 42.7289C93.4553 42.9787 93.193 43.2893 93.0304 43.6609C92.87 44.043 92.8396 44.4742 92.9392 44.9547C92.9955 45.2262 93.0895 45.4954 93.2211 45.7622C93.3631 46.0268 93.5439 46.2942 93.7633 46.5645L92.9798 47.1199L91.1928 45.1222Z" fill="#FFBD5C"/>
<path d="M93.3494 55.4138C93.5831 54.8097 93.8908 54.2962 94.2725 53.8733C94.6641 53.4618 95.1297 53.1409 95.6693 52.9106C96.3424 53.0743 96.9049 53.3695 97.3569 53.7961C97.8188 54.234 98.1947 54.7569 98.4847 55.3648C98.1992 55.944 97.8227 56.4474 97.3552 56.8751C96.8876 57.3028 96.3494 57.592 95.7403 57.7428C95.1986 57.5346 94.7272 57.235 94.3263 56.844C93.9246 56.4636 93.599 55.9869 93.3494 55.4138Z" fill="#FF7733"/>
<path d="M93.4173 66.1427L95.0292 66.7676C94.9083 66.9171 94.8024 67.0718 94.7116 67.232C94.6209 67.3922 94.5387 67.5441 94.4651 67.6877C94.4016 67.8349 94.3502 67.9638 94.311 68.0744C94.1719 68.4665 94.145 68.8136 94.2302 69.1157C94.3255 69.4213 94.4942 69.6796 94.7364 69.8903C94.985 70.1147 95.2701 70.2842 95.5916 70.3987C95.8428 70.4881 96.1098 70.5492 96.3924 70.5819C96.6852 70.6182 96.9634 70.6154 97.2273 70.5735C97.4876 70.5416 97.7051 70.4549 97.8798 70.3133L98.3554 68.2068L101.092 65.0373L99.3677 70.2827C99.0604 71.1809 98.6389 71.8744 98.1034 72.3631C97.5679 72.8518 96.9904 73.1557 96.371 73.2748C95.748 73.4039 95.145 73.3647 94.5622 73.1572C93.9693 72.9461 93.4856 72.587 93.1108 72.0799C92.7462 71.5764 92.5266 70.983 92.4521 70.2998C92.3775 69.6165 92.4761 68.876 92.7477 68.0783L93.4173 66.1427ZM91.1089 61.4993L91.6233 61.5806C91.7056 61.859 91.7675 62.1471 91.809 62.4449C91.8505 62.7428 91.8784 63.0471 91.8926 63.3579L90.6061 62.9168L91.1089 61.4993ZM89.8519 65.043L90.9663 65.4907L89.8965 67.4536L89.103 67.1541L89.8519 65.043ZM90.7184 62.6001L100.697 66.1532L99.7285 68.8826L89.7502 65.3295L90.7184 62.6001ZM99.3751 66.4808L100.299 64.7378L101.092 65.0373L100.44 66.877L99.3751 66.4808Z" fill="#FFBD5C"/>
<path d="M83.7113 76.419C84.0076 75.8317 84.3857 75.3413 84.8455 74.9479C85.3053 74.5546 85.8067 74.269 86.3495 74.0911C86.8949 73.9281 87.4547 73.8929 88.0289 73.9854C88.6117 74.0841 89.1775 74.3274 89.7262 74.7155C90.24 75.0788 90.6445 75.4956 90.9396 75.9656C91.2373 76.4505 91.428 76.9577 91.5117 77.4872C91.604 78.0229 91.5916 78.5497 91.4745 79.0679C91.3661 79.5922 91.1583 80.0723 90.8511 80.5083C90.6177 80.8397 90.332 81.1341 89.994 81.3915C89.6499 81.6577 89.2707 81.8533 88.8564 81.9784C88.436 82.1122 87.9889 82.1356 87.5151 82.0488C87.0351 81.9706 86.5501 81.7517 86.0598 81.3919L87.3145 79.2221C87.5711 79.4689 87.8739 79.6504 88.2227 79.7664C88.5715 79.8825 88.905 79.9093 89.223 79.8468C89.5497 79.7904 89.814 79.6376 90.0157 79.3884C90.0264 79.0954 89.9602 78.8004 89.8172 78.5033C89.6681 78.2149 89.4757 77.9417 89.24 77.6835C89.0043 77.4254 88.7602 77.207 88.5077 77.0284C88.0548 76.7081 87.6176 76.5231 87.1961 76.4732C86.7745 76.4233 86.3797 76.4837 86.0115 76.6544C85.6459 76.84 85.334 77.116 85.076 77.4822C84.8794 77.7612 84.7325 78.0623 84.6353 78.3855C84.5381 78.7087 84.4604 79.0783 84.4021 79.4944L83.4271 79.2948L83.7113 76.419ZM85.8366 80.0974L88.618 76.205L89.6692 76.7132L87.2688 80.6204L86.0598 81.3919L85.8366 80.0974Z" fill="#FFBD5C"/>
<path d="M78.8346 82.2313L83.3328 87.771L82.3815 89.6198L80.7234 88.9485L76.6891 83.9801L78.8346 82.2313ZM80.4352 86.0045L80.659 87.1432L80.6715 90.8898C80.4742 91.1883 80.2114 91.4231 79.8832 91.5943C79.5618 91.7737 79.2196 91.86 78.8567 91.8531C78.4923 91.8611 78.1586 91.7547 77.8555 91.5338L77.8319 88.8903C78.1782 88.9107 78.5453 88.9143 78.933 88.901C79.3206 88.8878 79.6636 88.794 79.9618 88.6197L80.4352 86.0045ZM83.9301 86.6029L84.4763 87.1486C84.2268 87.5859 83.9215 88.0136 83.5603 88.4319C83.2059 88.8584 82.8129 89.2544 82.3815 89.6198L81.6879 88.7403L82.2572 87.5124L83.9301 86.6029ZM79.7399 81.4933L80.1177 81.9078C79.9923 82.244 79.8335 82.573 79.6413 82.8948C79.4409 83.2233 79.2485 83.5109 79.064 83.7575L78.3509 82.6255L79.7399 81.4933ZM77.272 83.505L77.9402 84.9626C77.7397 85.071 77.5175 85.1696 77.2735 85.2583C77.0363 85.3554 76.7965 85.4407 76.5541 85.5145C76.3101 85.6032 76.0693 85.662 75.8315 85.6907L75.3621 85.0618L77.272 83.505Z" fill="#FFBD5C"/>
<path d="M68.9253 88.9536L72.3301 96.8074C72.5932 97.4141 72.6966 98.0147 72.6404 98.6092C72.5745 99.2079 72.3759 99.7422 72.0448 100.212C71.7039 100.686 71.2596 101.042 70.7119 101.281C70.3891 101.421 70.0116 101.516 69.5792 101.564C69.1371 101.617 68.682 101.6 68.2141 101.513L68.5882 98.715C69.0369 98.892 69.4938 99.0073 69.9588 99.0608C70.428 99.1242 70.8956 99.1301 71.3616 99.0785L69.3025 96.9035L69.1684 96.4733L66.3873 90.0582L68.9253 88.9536ZM69.8789 88.5386L70.131 89.0397C69.9195 89.3295 69.6778 89.6033 69.406 89.8612C69.1243 90.1234 68.8615 90.3483 68.6173 90.536L68.2358 89.2537L69.8789 88.5386ZM67.2088 89.7006L67.4594 91.2842C67.1222 91.3379 66.7717 91.3741 66.4078 91.3929C66.0482 91.4214 65.7002 91.41 65.364 91.3585L65.0815 90.6264L67.2088 89.7006ZM72.302 93.7659L72.6961 94.5541C72.4471 94.9184 72.1945 95.261 71.9384 95.5819C71.6864 95.9126 71.4351 96.2313 71.1845 96.5381L69.8197 96.0851L69.5713 94.9892L72.302 93.7659ZM69.4559 95.0046L70.175 96.6634L67.7543 97.7169L67.4278 97.0039L67.7541 95.7452L69.4559 95.0046Z" fill="#FFBD5C"/>
<path d="M55.5352 92.6141C56.1667 92.4302 56.7832 92.3722 57.3847 92.4401C57.9862 92.508 58.5373 92.6798 59.0381 92.9554C59.5297 93.243 59.9379 93.6282 60.2625 94.1111C60.5886 94.6046 60.7973 95.1842 60.8886 95.85C60.9742 96.4735 60.9461 97.0534 60.8043 97.5897C60.6534 98.1381 60.4132 98.6234 60.0835 99.0457C59.7553 99.4785 59.3619 99.8288 58.9034 100.097C58.4463 100.375 57.9536 100.55 57.4252 100.623C57.0237 100.678 56.6134 100.67 56.1945 100.599C55.765 100.529 55.363 100.385 54.9887 100.167C54.6037 99.9511 54.2811 99.6402 54.0209 99.2345C53.7501 98.8304 53.5787 98.3264 53.5066 97.7226L55.9489 97.1601C55.9439 97.5161 56.0181 97.8612 56.1716 98.1954C56.3252 98.5296 56.5334 98.7916 56.7963 98.9815C57.0606 99.182 57.3528 99.271 57.6727 99.2485C57.894 99.0565 58.0643 98.8069 58.1837 98.4998C58.2925 98.1941 58.3607 97.867 58.3882 97.5187C58.4158 97.1703 58.4086 96.8429 58.3665 96.5365C58.2912 95.9869 58.1277 95.5411 57.8762 95.1989C57.6247 94.8566 57.3108 94.6091 56.9345 94.4564C56.5492 94.3156 56.1346 94.2758 55.6908 94.3369C55.3526 94.3835 55.0323 94.4815 54.7298 94.6308C54.4273 94.7801 54.1042 94.9754 53.7604 95.2165L53.2402 94.3675L55.5352 92.6141ZM54.2998 96.6766L59.0435 96.0556L59.3902 97.1707L54.8962 98.0803L53.5066 97.7226L54.2998 96.6766Z" fill="#FFBD5C"/>
<path d="M44.0494 92.2608C44.6754 92.2501 45.2582 92.3572 45.798 92.5823C46.3377 92.8074 46.8056 93.1249 47.2015 93.5347C47.5855 93.9537 47.868 94.4448 48.0492 95.0081C48.2288 95.582 48.2716 96.2124 48.1773 96.8993C48.0642 97.7236 47.7913 98.4182 47.3585 98.9831C46.9137 99.5571 46.3662 99.977 45.7161 100.243C45.0554 100.507 44.3499 100.588 43.5996 100.484C43.1347 100.42 42.6957 100.284 42.2828 100.077C41.8698 99.8692 41.5259 99.5904 41.2509 99.2402C40.9759 98.8901 40.8017 98.4731 40.7281 97.9892L43.067 97.0677C43.2295 97.5315 43.4218 97.9349 43.6439 98.2777C43.854 98.6297 44.106 98.912 44.3998 99.1247C44.7406 98.8379 44.9929 98.4904 45.1565 98.0822C45.3187 97.6846 45.4245 97.3062 45.4738 96.9469C45.5434 96.4397 45.5272 95.969 45.4252 95.5351C45.3112 95.1102 45.1064 94.759 44.8107 94.4814C44.5045 94.2023 44.1083 94.0293 43.6222 93.9624C43.3475 93.9246 43.0624 93.923 42.7669 93.9577C42.47 94.0029 42.1575 94.0837 41.8293 94.2L41.5685 93.2758L44.0494 92.2608Z" fill="#FFBD5C"/>
<path d="M34.662 89.3509C34.989 89.4816 35.2674 89.6842 35.4972 89.9587C35.7312 90.2234 35.893 90.5206 35.9825 90.8504C36.0623 91.176 36.0385 91.4855 35.9113 91.7791L33.6265 97.0492L31.7095 98.937L30.5358 98.4262L31.133 95.8419L32.9786 91.5847C33.0804 91.3498 33.1086 91.1643 33.063 91.0281C33.0131 90.9018 32.8953 90.7981 32.7095 90.7172C32.5334 90.6406 32.3314 90.5702 32.1035 90.5059C31.8756 90.4416 31.6673 90.3858 31.4785 90.3386L31.7067 89.5305L34.662 89.3509ZM35.285 96.2005L34.9853 97.0123C34.5102 97.1429 34.0023 97.2418 33.4616 97.309C32.9069 97.3817 32.3223 97.4297 31.7076 97.453L31.8906 95.9447L32.5351 95.0212L35.285 96.2005ZM32.4158 94.9344L31.6967 96.5932L29.0266 95.4312L29.3301 94.6908L30.4646 94.0852L32.4158 94.9344Z" fill="#FFBD5C"/>
<path d="M23.84 84.7153C24.1985 85.2553 24.4404 85.8034 24.5658 86.3597C24.6762 86.9176 24.67 87.4836 24.5472 88.0578C24.0259 88.5137 23.4611 88.8032 22.8526 88.9265C22.2291 89.0513 21.5858 89.0567 20.9226 88.9427C20.6142 88.3749 20.4201 87.7763 20.3403 87.147C20.2604 86.5177 20.3344 85.9105 20.5621 85.3255C21.044 85.0028 21.56 84.7903 22.1101 84.6883C22.6519 84.5794 23.2285 84.5885 23.84 84.7153Z" fill="#FF7733"/>
<path d="M17.0221 74.4635C17.573 75.1713 17.9562 75.8541 18.1716 76.5117C18.387 77.1694 18.4787 77.7904 18.4468 78.3748C18.4149 78.9591 18.2872 79.5002 18.0637 79.9979C17.8316 80.5018 17.539 80.9569 17.186 81.3634C16.8242 81.776 16.4344 82.1301 16.0164 82.4257C15.4242 82.8446 14.7849 83.1595 14.0985 83.3706C13.406 83.5729 12.7056 83.6437 11.9973 83.5828C11.2802 83.5282 10.5914 83.3098 9.93086 82.9278C9.25542 82.5432 8.64126 81.9585 8.08835 81.1737C7.61531 80.5023 7.31358 79.8795 7.18315 79.3055C7.05273 78.7314 6.98937 78.2341 6.99308 77.8134L9.08147 76.9439C9.01875 77.7068 9.05591 78.4448 9.19295 79.1579C9.32129 79.8772 9.61991 80.6066 10.0888 81.3463C10.5083 81.4416 10.9536 81.4532 11.4248 81.3813C11.8812 81.3068 12.3286 81.1732 12.7671 80.9807C13.2056 80.7882 13.6164 80.5564 13.9996 80.2854C14.6092 79.8543 15.0946 79.3672 15.4559 78.8243C15.8084 78.2876 15.9901 77.7214 16.0011 77.1257C16.012 76.5301 15.8104 75.9476 15.3962 75.3782L13.1243 73.6535L13.9374 72.5297L17.0221 74.4635ZM10.7084 77.753L8.69564 79.9799L6.99308 77.8134C7.16368 77.6666 7.4106 77.4985 7.73384 77.3091C8.04222 77.1171 8.37596 76.9333 8.73504 76.7578C9.09412 76.5822 9.42016 76.4431 9.71316 76.3404L10.7084 77.753Z" fill="#FFBD5C"/>
<path d="M12.9076 67.0914L2.59771 70.7626L1.16232 69.2526L1.62712 68.17L11.9822 64.4827L12.9076 67.0914ZM13.3034 68.2073L12.7866 68.4253C12.5159 68.2047 12.2614 67.9499 12.0232 67.6611C11.7813 67.3622 11.5753 67.0846 11.4051 66.8282L12.7043 66.5184L13.3034 68.2073ZM12.4529 65.8097L10.7667 65.9855C10.7365 65.6452 10.724 65.2591 10.7292 64.8269C10.7243 64.3984 10.7674 64.0094 10.8585 63.66L11.6078 63.4271L12.4529 65.8097ZM3.51136 71.7111L2.78446 72.0548C2.46678 71.6698 2.17179 71.237 1.89949 70.7565C1.62718 70.276 1.38146 69.7747 1.16232 69.2526L2.23785 68.8866L3.20206 69.8341L3.51136 71.7111Z" fill="#FFBD5C"/>
<path d="M10.2669 52.5334C10.2815 52.7463 10.2378 52.9684 10.136 53.1999C10.0441 53.4201 9.90363 53.6328 9.71451 53.8382C9.51403 54.0337 9.2798 54.2048 9.01184 54.3515L8.94728 54.5804L5.06838 54.8463C4.56822 54.8806 4.20617 54.9802 3.98222 55.1452C3.75828 55.3103 3.59963 55.4922 3.50629 55.6911C3.52783 55.85 3.5657 56.0131 3.61989 56.1804C3.66271 56.3379 3.70904 56.4683 3.75887 56.5719L5.54091 56.8346L5.68072 58.4128C5.3269 58.5546 4.93897 58.6667 4.51693 58.7491C4.09489 58.8315 3.68555 58.8649 3.2889 58.8493C3.13868 58.5282 2.99692 58.1744 2.86362 57.7879C2.71968 57.4022 2.59739 57.0203 2.49674 56.6423C2.38472 56.2544 2.29617 55.8969 2.23108 55.57C2.16527 55.2323 2.12509 54.9571 2.11056 54.7443C2.09022 54.4463 2.11317 54.1561 2.17942 53.8735C2.24566 53.591 2.36124 53.3265 2.52617 53.08C2.67973 52.8235 2.87803 52.5961 3.12108 52.3977C3.24297 52.3038 3.42557 52.2378 3.66887 52.1998C3.91218 52.1617 4.26795 52.1266 4.73618 52.0946L8.00851 51.8703C8.11493 51.863 8.2032 51.8249 8.27333 51.7559C8.34274 51.6763 8.37345 51.578 8.36546 51.4609C8.35674 51.3332 8.3427 51.2059 8.32334 51.0789C8.30398 50.9519 8.28316 50.8037 8.2609 50.6341L8.95671 50.4902L10.2669 52.5334ZM10.4297 55.8581C10.5684 56.4794 10.5572 57.0201 10.3962 57.4802C10.2351 57.9403 9.99196 58.2937 9.66668 58.5405C9.33076 58.7881 8.98189 58.9242 8.62008 58.949C8.29018 58.9716 7.94807 58.8935 7.59373 58.7147C7.22875 58.5365 6.91358 58.2267 6.64822 57.7851L6.32756 54.2628L7.3343 54.2099L7.34885 54.6579C7.36192 54.8495 7.38601 55.0456 7.42109 55.2464C7.45546 55.4364 7.50469 55.6095 7.5688 55.7655C7.6329 55.9214 7.72143 56.0437 7.83439 56.1322C7.94734 56.2206 8.08896 56.2591 8.25922 56.2474C8.37628 56.2394 8.49721 56.2097 8.622 56.1584C8.74607 56.0964 8.8474 56.0146 8.926 55.913C8.90155 55.7115 8.85582 55.5115 8.78881 55.313C8.72107 55.1038 8.64874 54.9056 8.57181 54.7184C8.49488 54.5313 8.43041 54.37 8.3784 54.2345L9.03466 53.9811L10.4297 55.8581Z" fill="#FFBD5C"/>
<path d="M11.2785 43.5596C11.1767 44.0504 10.9994 44.5638 10.7467 45.0995C10.4961 45.6248 10.1661 46.139 9.75676 46.6421L7.88673 45.3375C8.30971 44.9789 8.70678 44.5876 9.07793 44.1637C9.43865 43.7376 9.75867 43.2976 10.038 42.8437C9.98441 42.7345 9.90972 42.6481 9.81396 42.5846C9.70992 42.5084 9.61091 42.4606 9.51693 42.441C9.29763 42.3954 9.09125 42.445 8.89778 42.5899C8.69387 42.7327 8.48957 42.9299 8.28489 43.1814C8.0802 43.433 7.86596 43.7043 7.64217 43.9955C7.41838 44.2867 7.17803 44.5526 6.92113 44.7933C6.65379 45.0318 6.36073 45.2105 6.04195 45.3293C5.72317 45.4482 5.36537 45.4663 4.96855 45.3837C4.47774 45.2815 4.07991 45.0461 3.77507 44.6776C3.46195 44.2964 3.26034 43.8241 3.17024 43.2606C3.0697 42.6949 3.08874 42.0778 3.22738 41.4093C3.30969 41.0125 3.43703 40.6086 3.60939 40.1978C3.78391 39.7765 3.99676 39.4068 4.24794 39.0886L5.5094 39.9396C5.22295 40.2178 4.97897 40.5537 4.77745 40.9476C4.56549 41.3393 4.42268 41.7127 4.34903 42.0678C4.36798 42.3441 4.43144 42.5371 4.53942 42.6468C4.64957 42.746 4.76208 42.8075 4.87695 42.8314C5.09625 42.8771 5.30785 42.8285 5.51176 42.6858C5.71784 42.5326 5.92322 42.3302 6.1279 42.0786C6.33475 41.8166 6.5553 41.5411 6.78953 41.2521C7.01333 40.961 7.2589 40.6961 7.52624 40.4576C7.79575 40.2086 8.09511 40.0258 8.42433 39.9092C8.75572 39.782 9.11983 39.7598 9.51665 39.8424C10.2059 39.9859 10.7259 40.3938 11.0767 41.0661C11.4192 41.7257 11.4864 42.5569 11.2785 43.5596ZM6.10298 41.1746L3.65356 41.4817L4.24794 39.0886C4.61993 39.1334 4.98956 39.2158 5.35684 39.3359C5.71367 39.4537 6.05769 39.6071 6.38892 39.7959L6.10298 41.1746Z" fill="#FFBD5C"/>
<path d="M15.0311 33.1316C14.8008 33.5769 14.4918 34.0234 14.1042 34.4712C13.7214 34.9094 13.2652 35.3156 12.7355 35.6896L11.2868 33.928C11.7907 33.6968 12.2784 33.4272 12.7499 33.1191C13.212 32.8061 13.6386 32.4688 14.0299 32.107C14.0077 31.9874 13.9591 31.884 13.884 31.797C13.8044 31.6955 13.7219 31.6227 13.6367 31.5784C13.4379 31.4752 13.2259 31.4673 13.0006 31.5547C12.7658 31.6371 12.516 31.7718 12.2512 31.9588C11.9863 32.1458 11.707 32.3493 11.4131 32.5693C11.1192 32.7893 10.8161 32.9805 10.504 33.1429C10.1823 33.3005 9.85206 33.3934 9.51315 33.4218C9.17425 33.4501 8.82492 33.371 8.46518 33.1842C8.02024 32.9532 7.70069 32.619 7.50655 32.1817C7.30784 31.73 7.24104 31.2206 7.30617 30.6535C7.36183 30.0815 7.54645 29.4923 7.86005 28.8859C8.04625 28.5259 8.27766 28.1713 8.55429 27.8221C8.83582 27.4635 9.14036 27.1649 9.46789 26.9263L10.4529 28.0867C10.1022 28.2772 9.77681 28.5349 9.47668 28.8599C9.16708 29.1799 8.92898 29.5009 8.76238 29.8231C8.70615 30.0944 8.71524 30.2974 8.78964 30.4321C8.86894 30.5574 8.96066 30.6471 9.0648 30.7012C9.26361 30.8044 9.48039 30.8148 9.71516 30.7324C9.95483 30.6405 10.2071 30.501 10.4719 30.314C10.7417 30.1175 11.0282 29.9117 11.3316 29.6967C11.6255 29.4767 11.9332 29.2879 12.2549 29.1304C12.5814 28.9634 12.9189 28.8682 13.2672 28.8447C13.6205 28.8118 13.977 28.8887 14.3368 29.0755C14.9616 29.3998 15.3522 29.9332 15.5088 30.6754C15.6607 31.4033 15.5015 32.222 15.0311 33.1316ZM10.6916 29.4365L8.25081 29.0708L9.46789 26.9263C9.81393 27.0699 10.1476 27.2492 10.4688 27.464C10.7805 27.6739 11.0704 27.9145 11.3383 28.1858L10.6916 29.4365Z" fill="#FFBD5C"/>
<path d="M20.1671 25.0148L14.9565 20.1391L15.6472 18.1779L16.7971 18.0706L22.0544 22.99L20.1671 25.0148ZM19.3597 25.8809L18.929 25.5217C19.0003 25.1793 19.1092 24.8357 19.2557 24.4907C19.4095 24.138 19.561 23.8269 19.7101 23.5574L20.5816 24.5701L19.3597 25.8809ZM21.0944 24.02L20.1638 22.6014C20.4516 22.4178 20.7881 22.2288 21.1736 22.0343C21.5512 21.8326 21.9158 21.6917 22.2675 21.6117L22.8181 22.1708L21.0944 24.02ZM14.5238 21.3777L13.9085 20.9114C14.0961 20.4442 14.3403 19.9789 14.6411 19.5153C14.9342 19.0445 15.2695 18.5987 15.6472 18.1779L16.4541 18.9548L16.0573 20.2488L14.5238 21.3777ZM14.7662 17.8794C14.4021 18.0353 14.0138 18.1468 13.6014 18.2138C13.1813 18.2735 12.7824 18.2946 12.4048 18.2773C12.2548 17.8594 12.1539 17.4436 12.1021 17.0299C12.0425 16.6089 12.0361 16.2012 12.0829 15.8068C12.4626 15.6654 12.867 15.5836 13.296 15.5614C13.7172 15.5319 14.121 15.5445 14.5074 15.5993C14.6402 15.9574 14.7323 16.3357 14.7836 16.7343C14.8272 17.1257 14.8213 17.5073 14.7662 17.8794Z" fill="#FFBD5C"/>
<path d="M31.0748 16.4035C30.5963 16.8074 30.0769 17.0927 29.5166 17.2591C28.9564 17.4256 28.3936 17.475 27.8284 17.4072C27.2668 17.3247 26.7383 17.1221 26.243 16.7994C25.7421 16.4675 25.3118 16.0052 24.952 15.4125C24.5203 14.7013 24.2943 13.9897 24.2739 13.2776C24.2571 12.5509 24.417 11.879 24.7535 11.2617C25.0992 10.6389 25.5954 10.1304 26.2422 9.7364C26.643 9.4922 27.0689 9.32015 27.5198 9.22026C27.9708 9.12037 28.4131 9.11939 28.8469 9.21733C29.2807 9.31526 29.6785 9.52877 30.0405 9.85783L28.8078 12.0516C28.3896 11.7942 27.9864 11.6027 27.5981 11.4771C27.2135 11.3367 26.8402 11.2768 26.4784 11.2974C26.3949 11.7355 26.4183 12.1647 26.5486 12.5849C26.6734 12.996 26.8298 13.3566 27.018 13.6666C27.2837 14.1043 27.5927 14.4594 27.9452 14.7317C28.3013 14.9894 28.6814 15.1326 29.0855 15.1611C29.4987 15.1841 29.9149 15.068 30.3339 14.8127C30.5707 14.6684 30.7928 14.4894 31 14.2757C31.2016 14.0529 31.393 13.7926 31.5742 13.4949L32.3587 14.0474L31.0748 16.4035Z" fill="#FFBD5C"/>
<path d="M40.0312 10.9252C39.3838 10.9075 38.7971 10.7897 38.271 10.5717C37.7522 10.3407 37.2941 10.0095 36.8966 9.57823C36.8257 8.88907 36.9156 8.26003 37.1663 7.69109C37.4244 7.109 37.7914 6.57945 38.2672 6.10244C38.9083 6.17726 39.5086 6.36328 40.068 6.66048C40.6274 6.95769 41.0799 7.36798 41.4256 7.89135C41.4107 8.47165 41.2861 9.01626 41.0519 9.52518C40.8279 10.0312 40.4876 10.4979 40.0312 10.9252Z" fill="#FF7733"/>
<path d="M41.1527 33.9326C37.9539 32.0599 33.7789 33.3561 32.1131 36.6674C28.7292 43.394 29.3441 52.9673 34.4312 61.5578C39.5333 70.1738 47.7631 75.4857 55.4497 75.9646C57.3258 76.0815 57.6929 73.6504 56.3222 72.3641C45.7332 62.4267 53.2473 41.0133 41.1527 33.9326Z" fill="#FF7733"/>
<path d="M60.8465 70.0693C64.0467 71.9398 68.221 70.6439 69.8869 67.3326C73.2708 60.606 72.6559 51.0327 67.5689 42.4422C62.4667 33.8262 54.2369 28.5143 46.5503 28.0354C44.6742 27.9185 44.3073 30.3491 45.6786 31.6348C56.2809 41.576 48.7346 62.9897 60.8465 70.0693Z" fill="#FFBD5C"/>
</svg>
